<?xml version="1.0" encoding="UTF-8" standalone="no"?>
<!-- Created with Inkscape (http://www.inkscape.org/) -->

<svg
   width="308"
   height="116"
   version="1.1"
   viewBox="0 0 81.490834 30.691423"
   id="svg4"
   xml:space="preserve"
   xmlns="http://www.w3.org/2000/svg"
   xmlns:svg="http://www.w3.org/2000/svg"><defs
     id="defs4" /><g
     transform="translate(1.4128,1.1693)"
     id="g4"><g
       id="g6"
       transform="matrix(1.0497787,0,0,1.0497787,-4.0125768,-7.1145142)"><g
         transform="matrix(1.000032,0,0,1.000032,67.218886,164.25241)"
         id="g1"><rect
           x="-55.500004"
           y="-158.60788"
           width="27.502535"
           height="27.731102"
           ry="2.7093625"
           fill="#c70020"
           stroke-width="0.421635"
           id="rect1-5"
           transform="matrix(1,0,-0.12812732,0.99175773,0,0)" /></g><path
         style="font-style:italic;font-weight:bold;font-size:18.8186px;line-height:1.25;font-family:Roboto;-inkscape-font-specification:'Roboto Bold Italic';letter-spacing:-0.0453662px;word-spacing:0px;stroke-width:0.252035;fill:#ffffff"
         d="m 12.98935,25.489612 -0.37674,2.150172 H 5.6934667 L 6.0610175,25.489612 Z M 8.9003472,14.260936 6.5755886,27.639784 H 3.8832792 L 6.1988491,14.260936 Z m 4.1900788,5.44894 -0.367551,2.095039 H 6.7042314 l 0.3675507,-2.095039 z m 1.828565,-5.44894 -0.376739,2.15936 H 7.6322971 l 0.3859283,-2.15936 z m 4.199845,-0.735102 -2.453401,14.11395 H 14.08339 l 2.444213,-14.11395 z m 4.650095,-0.0092 -2.453401,14.123139 h -2.582045 l 2.453402,-14.123139 z m 5.44894,4.18089 -5.044634,4.93437 -2.701498,2.370702 -0.643214,-2.067473 2.122606,-2.269626 2.977161,-2.967973 z m -4.428987,9.942249 -2.104228,-4.70465 1.957208,-1.506958 2.995539,6.211608 z"
         id="text1"
         aria-label="Elk" /><path
         style="font-style:italic;font-weight:bold;font-size:18.8186px;line-height:1.25;font-family:Roboto;-inkscape-font-specification:'Roboto Bold Italic';letter-spacing:0px;word-spacing:0px;stroke-width:0.252035;fill:#ffffff"
         d="m 58.621875,26.629198 q -0.0092,-0.624837 0.413495,-1.029143 0.431872,-0.404305 1.047519,-0.404305 0.588082,-0.0092 1.010765,0.36755 0.431872,0.367551 0.441061,0.97401 0.0092,0.624836 -0.422684,1.029142 -0.422683,0.404306 -1.03833,0.404306 -0.588082,0.0092 -1.019954,-0.358362 -0.422683,-0.37674 -0.431872,-0.983198 z m 8.894729,-6.652669 -2.030718,11.706492 h -2.591233 l 2.38908,-13.764777 h 2.38908 z m 5.605149,2.747442 -0.02757,0.192964 q -0.110265,0.900499 -0.422684,1.819376 -0.303229,0.918877 -0.836178,1.681545 -0.532948,0.753479 -1.313994,1.212917 -0.781045,0.45025 -1.837753,0.422684 -0.928066,-0.02757 -1.543714,-0.487005 -0.615647,-0.459438 -0.96482,-1.176162 -0.349174,-0.725913 -0.487005,-1.562091 -0.137832,-0.836178 -0.110265,-1.598846 l 0.06432,-0.514571 q 0.137831,-0.836178 0.477816,-1.7183 0.339984,-0.891311 0.882122,-1.635601 0.542137,-0.753479 1.295616,-1.203729 0.753479,-0.459438 1.736678,-0.431872 1.019953,0.02757 1.663167,0.487005 0.652403,0.459438 0.992387,1.19454 0.339984,0.735101 0.422683,1.608035 0.09189,0.863744 0.0092,1.709111 z m -2.60961,0.183775 0.02757,-0.192964 q 0.03675,-0.404306 0.03675,-0.891311 0,-0.496193 -0.110265,-0.946443 -0.110265,-0.45025 -0.404306,-0.753479 -0.294041,-0.30323 -0.845367,-0.321607 -0.560515,-0.02757 -0.983198,0.174587 -0.422684,0.202153 -0.716724,0.569703 -0.284852,0.358362 -0.468627,0.817801 -0.183776,0.459438 -0.266475,0.946443 l -0.183775,1.286428 q -0.04594,0.560515 0.07351,1.111841 0.119454,0.542137 0.468627,0.900499 0.358362,0.358362 1.029142,0.37674 0.606459,0.0092 1.029143,-0.275663 0.422683,-0.284852 0.689157,-0.753479 0.275663,-0.477816 0.422684,-1.019954 0.14702,-0.542137 0.202153,-1.029142 z m 8.490422,-9.161203 -2.453401,14.11395 H 73.96712 l 2.444212,-14.11395 z"
         id="text3"
         aria-label=".pl" /><path
         style="font-style:italic;font-weight:900;font-size:16.1303px;line-height:1.25;font-family:Roboto;-inkscape-font-specification:'Roboto Heavy Italic';letter-spacing:0px;word-spacing:0px;fill:#ffffff;stroke-width:0.252035"
         d="m 43.187861,24.471224 -0.322921,2.047792 h -7.773733 l 0.28354,-1.82726 4.079832,-3.788416 q 0.330797,-0.322921 0.708851,-0.724603 0.378054,-0.401682 0.66947,-0.858497 0.299293,-0.464692 0.370178,-0.945135 0.04726,-0.362302 -0.01575,-0.693099 -0.05513,-0.330797 -0.275664,-0.543453 -0.212656,-0.220531 -0.637966,-0.228407 -0.48832,-0.01575 -0.819117,0.267788 -0.322921,0.28354 -0.504072,0.708851 -0.173275,0.425311 -0.228408,0.842745 l -2.575492,0.01575 q 0.05513,-1.142038 0.669471,-2.016288 0.622213,-0.87425 1.5831,-1.370445 0.968764,-0.496196 2.087173,-0.480444 1.01602,0.01575 1.811508,0.38593 0.803365,0.370178 1.236552,1.094781 0.433187,0.724604 0.346549,1.803632 -0.06301,0.748232 -0.393806,1.386198 -0.322921,0.637966 -0.811241,1.197171 -0.480443,0.551329 -1.031772,1.0554 -0.543452,0.496196 -1.047524,0.968764 l -1.740624,1.68549 z m 9.600995,-2.433722 -0.354426,2.047792 h -8.010017 l 0.14177,-1.748499 5.655057,-7.285414 h 2.197438 l -2.929918,3.827796 -2.370713,3.142573 z m 0.08664,-6.986121 -1.984783,11.467635 h -2.591244 l 1.984783,-11.467635 z"
         id="text4"
         aria-label="24" /></g></g></svg>
