<?xml version="1.0" encoding="UTF-8"?>
<!-- Created with Inkscape (http://www.inkscape.org/) -->
<svg width="467" height="116" version="1.1" viewBox="0 0 123.56 30.691" xml:space="preserve" xmlns="http://www.w3.org/2000/svg"><g transform="translate(1.4128,1.1693)"><g transform="matrix(1.0498 0 0 1.0498 -4.0126 -7.1145)"><g transform="matrix(1 0 0 1 107.47 163.84)"><path transform="matrix(1 0 -.12813 .99176 0 0)" d="m-52.791-158.61h22.084c1.501 0 2.7094 1.2084 2.7094 2.7094v22.312c0 1.501-1.2084 2.7094-2.7094 2.7094h-22.084c-1.501 0-2.7094-1.2084-2.7094-2.7094v-22.312c0-1.501 1.2084-2.7094 2.7094-2.7094z" fill="#c70020" stroke-width=".42164"/></g><g fill="#fff" stroke-width=".25204"><path d="m13.442 25.532q-0.71672 0.90969-2.1042 1.4059-1.3783 0.487-3.115 0.45944-1.3691-0.0092-2.4075-0.59727-1.0383-0.59727-1.6356-1.7091-0.59727-1.1118-0.67997-2.5361-0.091888-1.3232 0.27566-3.1058 0.37674-1.7918 1.2772-3.1334 0.90969-1.3507 2.1777-2.0123 1.2681-0.67078 2.8118-0.64321 2.095 0.03676 3.2804 1.1854 1.1854 1.1394 1.3507 3.2712l-2.5912-0.0092q-0.10108-1.121-0.59727-1.654-0.49619-0.53295-1.4794-0.5697-1.6999-0.05513-2.6831 1.4978-0.97401 1.5437-1.1118 4.4841-0.091888 1.5713 0.47782 2.435 0.57889 0.86374 1.7551 0.88212 1.3691 0.03675 2.3339-0.6524l0.45025-2.3064h-2.4442l0.35836-2.0307h5.109zm8.4445-5.7614q-0.53295-0.09189-0.87293-0.09189-1.3875-0.03675-2.1961 1.0383l-1.1486 6.5056h-2.5912l1.7275-9.9422 2.435-0.0092-0.23891 1.2129q0.93726-1.4059 2.3156-1.4059 0.38593 0 0.9005 0.12864zm5.4214 7.4521q-0.11945-0.37674-0.10108-0.9005-1.121 1.121-2.5361 1.0843-1.3048-0.01838-2.1685-0.84537-0.85456-0.83618-0.79942-2.0583 0.06432-1.6264 1.3599-2.4902 1.3048-0.87293 3.4917-0.87293l1.2129 0.01838 0.12864-0.59727q0.05513-0.30323 0.02757-0.57889-0.04594-0.43187-0.3308-0.67078-0.27566-0.2481-0.7351-0.25728-0.60646-0.01838-1.0291 0.30323-0.42268 0.31242-0.54214 0.90969l-2.6004 0.0092q0.06432-1.4243 1.3048-2.3064 1.2497-0.89131 3.0782-0.87293 1.6907 0.03675 2.6464 1.0108 0.95563 0.96482 0.79942 2.4902l-0.76267 4.7598-0.04594 0.58808q-0.01838 0.6524 0.15621 1.1027l-0.0092 0.17459zm-1.994-1.8286q1.121 0.03676 1.9572-0.97401l0.32161-1.7183-0.9005-0.0092q-1.4334 0.03675-2.0675 0.87293-0.22972 0.30323-0.28485 0.74429-0.07351 0.49619 0.20215 0.79023 0.28485 0.28485 0.77186 0.29404zm10.595-8.1137-1.7826 10.484q-0.21134 1.6632-1.2037 2.5912-0.9832 0.92807-2.5453 0.90969-0.62484-0.01838-1.3783-0.17459l0.21134-2.1134q0.45944 0.10108 0.79942 0.11946 1.2221 0.01838 1.4886-1.3232l1.801-10.494zm-2.3615-2.5269q-0.01838-0.60646 0.38593-1.0016 0.40431-0.40431 1.0383-0.42268 0.63402 0 1.0383 0.37674 0.41349 0.37674 0.43187 0.95563 0.01838 0.61565-0.38593 1.02-0.4043 0.39512-1.0383 0.4135-0.57889 0.01838-1.02-0.34917-0.43187-0.36755-0.45025-0.99239zm7.4429 12.653q-1.3048-0.0092-2.3156-0.63402-1.0016-0.63402-1.4978-1.7275-0.49619-1.1027-0.38593-2.4258l0.02757-0.36755q0.13783-1.4518 0.84537-2.6647 0.70754-1.2129 1.8194-1.8653 1.1118-0.66159 2.4626-0.62484 1.9205 0.03675 2.9037 1.4151 0.99239 1.3691 0.75348 3.4734l-0.14702 1.1302h-6.0922q-0.03675 0.96482 0.46863 1.5437 0.50538 0.57889 1.3783 0.59727 1.4151 0.03675 2.481-1.0935l1.1854 1.4702q-0.56052 0.84537-1.6172 1.3232-1.0567 0.46863-2.2696 0.45025zm0.82699-8.1688q-0.71672-0.01838-1.2772 0.45025-0.55133 0.46863-0.99239 1.6264h3.5652l0.05513-0.23891q0.05513-0.36755 0.0092-0.69835-0.09189-0.53295-0.45025-0.82699-0.35836-0.30323-0.90969-0.31242zm13.388 4.3647 2.3615-6.3219h2.582l-4.1809 9.9422h-2.1686l-0.7351-6.2208-2.9037 6.2208h-2.1685l-0.7351-9.9422h2.4258l0.15621 6.2576 2.8393-6.2576h1.8745zm10.218-6.5056q1.314 0.01838 2.2604 0.67997 0.95563 0.6524 1.3967 1.8102 0.45025 1.1486 0.32161 2.5545-0.21134 2.3707-1.654 3.8409-1.4334 1.461-3.5469 1.4243-1.2956-0.01838-2.2421-0.66159-0.94644-0.6524-1.3967-1.801-0.45025-1.1486-0.32161-2.5361 0.23891-2.4626 1.6724-3.9144 1.4334-1.4518 3.5101-1.3967zm-2.6188 6.2576q0.01838 0.88212 0.4135 1.3967 0.39512 0.50538 1.1118 0.52376 1.1945 0.03676 1.8745-1.0935 0.67997-1.1394 0.63402-2.9864-0.03675-0.88212-0.43187-1.4059-0.38593-0.53295-1.1118-0.55133-1.1578-0.03675-1.8561 1.0935-0.68916 1.121-0.63402 3.0231z" aria-label="Grajewo"/><path d="m100.33 24.705q0.61564-0.01838 1.0475 0.38593 0.44106 0.39512 0.44106 1.0016 0.0184 0.60646-0.40431 1.0383-0.42268 0.42268-1.0383 0.42268-0.61565 0.01838-1.0383-0.36755-0.42268-0.38593-0.44106-1.0016-0.01838-0.61565 0.39512-1.0383 0.4135-0.42268 1.0383-0.44106zm13.131-2.2053q-0.19297 1.5621-0.8178 2.775-0.62484 1.2129-1.5529 1.801-0.92807 0.58808-2.0583 0.56052-1.4426-0.03676-2.2788-1.0751l-0.90969 4.7046h-2.5912l2.3799-13.765 2.3891-0.0092-0.17459 1.0016q1.0751-1.2129 2.5361-1.1762 1.461 0.03675 2.2696 1.0659 0.80861 1.02 0.86374 2.775 0.0184 0.5697-0.0551 1.3416zm-2.5729-0.19296 0.0551-0.88212q0.0184-0.89131-0.3308-1.4151-0.33998-0.52376-1.0016-0.54214-1.1302-0.03676-1.8653 0.95563l-0.74429 4.0982q0.33999 0.92806 1.461 0.96482 0.93725 0.02757 1.5621-0.72591 0.62484-0.75348 0.86374-2.4534zm6.1289 5.1365h-2.6096l2.4534-14.114h2.6004z" aria-label=".pl"/><path d="m83.112 26.102h-7.7737l0.28354-1.8273 4.0798-3.7884 0.5592-0.5592q1.3153-1.3232 1.205-2.4967-0.08664-0.91363-0.94514-0.93726-0.60646-0.01575-1.0318 0.4962-0.41743 0.50407-0.51982 1.3232l-2.5755 0.01575q0.06301-1.079 0.65372-1.969 0.59071-0.89788 1.5752-1.402 0.99239-0.50407 2.1108-0.4962 1.6776 0.0315 2.5991 0.91363 0.92151 0.87425 0.80336 2.3707-0.07088 0.88213-0.58283 1.717-0.50407 0.83487-1.4728 1.7564l-1.1972 1.1027-1.78 1.717 4.3319 0.01575zm8.8764-4.4815h1.1263l-0.35443 2.0478h-1.1263l-0.42531 2.4337h-2.5912l0.42531-2.4337h-4.2925l0.14177-1.7485 5.6314-7.2618v-0.05513l2.6779 0.03938zm-4.5445-0.01575 1.9533 0.01575 0.6931-3.56z" aria-label="24"/></g></g></g></svg>
