<?xml version="1.0" encoding="UTF-8" standalone="no"?>
<!-- Created with Inkscape (http://www.inkscape.org/) -->

<svg
   width="540"
   height="116"
   version="1.1"
   viewBox="0 0 142.87353 30.691423"
   id="svg4"
   xml:space="preserve"
   xmlns="http://www.w3.org/2000/svg"
   xmlns:svg="http://www.w3.org/2000/svg"><defs
     id="defs4" /><g
     transform="translate(1.4128,1.1693)"
     id="g4"><g
       id="g6"
       transform="matrix(1.0497787,0,0,1.0497787,-4.0125768,-7.1145142)"><g
         transform="matrix(1.000032,0,0,1.000032,126.51142,164.30455)"
         id="g1"><rect
           x="-55.500004"
           y="-158.60788"
           width="27.502535"
           height="27.731102"
           ry="2.7093625"
           fill="#c70020"
           stroke-width="0.421635"
           id="rect1-5"
           transform="matrix(1,0,-0.12812732,0.99175773,0,0)" /></g><path
         style="font-style:italic;font-weight:bold;font-size:18.3193px;line-height:1.25;font-family:Roboto;-inkscape-font-specification:'Roboto Bold Italic';letter-spacing:-0.0760579px;word-spacing:0px;stroke-width:0.245348"
         d="M 11.905563,16.294804 6.6638107,26.957209 H 3.7835301 L 10.742717,13.933332 h 1.842664 z m 1.037617,10.662405 -1.592205,-10.939699 0.0984,-2.084178 h 1.726379 l 2.459867,13.023877 z m 0.661928,-4.848174 -0.366744,2.102068 H 6.5385811 l 0.3667438,-2.102068 z m 8.886802,2.397252 1.252295,-7.227537 h 2.522482 l -1.681654,9.678459 H 22.22356 Z m 0.572478,-1.860554 0.724542,-0.01789 q -0.09839,0.849772 -0.375688,1.663764 -0.277295,0.813993 -0.760323,1.466976 -0.483028,0.652982 -1.198626,1.028671 -0.715598,0.375689 -1.690599,0.357799 -0.796103,-0.01789 -1.341746,-0.304129 -0.545643,-0.295184 -0.867662,-0.787157 -0.322019,-0.500919 -0.438304,-1.144957 -0.107339,-0.644038 -0.03578,-1.377525 l 1.046562,-6.252535 h 2.513537 l -1.055507,6.288315 q -0.02683,0.304129 0,0.581423 0.02684,0.268349 0.14312,0.483028 0.116284,0.21468 0.330964,0.348854 0.214679,0.12523 0.572478,0.134175 0.760322,0.02684 1.261241,-0.304129 0.500918,-0.339909 0.778212,-0.912387 0.286239,-0.572478 0.393579,-1.252296 z M 33.999589,17.27875 h 2.307803 l -1.60115,9.347495 q -0.1789,1.3328 -0.885552,2.272022 -0.706653,0.939222 -1.797939,1.422251 -1.082342,0.483028 -2.406197,0.456193 -0.644038,-0.01789 -1.270186,-0.196789 -0.626148,-0.1789 -1.171791,-0.527754 -0.545644,-0.339908 -0.948167,-0.849772 l 1.243351,-1.484865 q 0.393578,0.518808 0.930277,0.805047 0.536698,0.295185 1.189681,0.313074 0.697707,0.01789 1.234406,-0.250459 0.536698,-0.268349 0.885552,-0.760322 0.348854,-0.491974 0.465138,-1.171791 l 1.234406,-7.263316 z m -7.147031,5.018129 0.02684,-0.187844 q 0.107339,-0.912387 0.429358,-1.806884 0.322019,-0.903442 0.867662,-1.63693 0.545643,-0.733488 1.332801,-1.162846 0.787157,-0.429359 1.833719,-0.402524 0.966057,0.02683 1.56537,0.483028 0.599313,0.447249 0.912387,1.171792 0.313074,0.715597 0.411468,1.556425 0.10734,0.840827 0.07156,1.636929 l -0.04473,0.420414 q -0.143119,0.805047 -0.474083,1.654819 -0.330964,0.849772 -0.858717,1.574315 -0.527754,0.715598 -1.270186,1.144956 -0.733488,0.429359 -1.67271,0.402524 -0.975001,-0.02684 -1.619039,-0.474083 -0.635093,-0.447249 -1.001837,-1.153902 -0.357799,-0.715597 -0.474083,-1.556425 -0.116285,-0.849772 -0.03578,-1.663764 z m 2.540371,-0.196789 -0.01789,0.196789 q -0.04472,0.402524 -0.03578,0.885552 0.01789,0.474083 0.14312,0.912387 0.134175,0.438304 0.438304,0.724543 0.304129,0.277294 0.840827,0.295184 0.706652,0.03578 1.207571,-0.295184 0.509863,-0.330964 0.813992,-0.876607 0.304129,-0.554589 0.420414,-1.171792 l 0.169954,-1.189681 q 0.03578,-0.429358 -0.0089,-0.858717 -0.04472,-0.429358 -0.214679,-0.787157 -0.16101,-0.357799 -0.483028,-0.581423 -0.313074,-0.223625 -0.831883,-0.23257 -0.599313,-0.02683 -1.037616,0.25046 -0.429359,0.277294 -0.715598,0.733487 -0.286239,0.447249 -0.456193,0.975002 -0.169955,0.527753 -0.23257,1.019727 z m 13.055158,2.406197 1.252296,-7.227537 h 2.522482 l -1.681655,9.678459 h -2.361472 z m 0.572478,-1.860554 0.724543,-0.01789 q -0.0984,0.849772 -0.375689,1.663764 -0.277294,0.813993 -0.760322,1.466976 -0.483029,0.652982 -1.198626,1.028671 -0.715598,0.375689 -1.6906,0.357799 -0.796102,-0.01789 -1.341745,-0.304129 Q 37.832482,26.54574 37.510463,26.053767 37.188445,25.552848 37.07216,24.90881 36.96482,24.264772 37.03638,23.531285 l 1.046562,-6.252535 h 2.513536 l -1.055506,6.288315 q -0.02683,0.304129 0,0.581423 0.02684,0.268349 0.143119,0.483028 0.116285,0.21468 0.330964,0.348854 0.21468,0.12523 0.572478,0.134175 0.760323,0.02684 1.261241,-0.304129 0.500919,-0.339909 0.778213,-0.912387 0.286239,-0.572478 0.393578,-1.252296 z M 52.6498,17.27875 52.327781,19.103524 h -5.483267 l 0.322019,-1.824774 z m -3.712163,-2.388307 h 2.513537 l -1.574315,9.168595 q -0.03578,0.313074 0,0.536698 0.04472,0.21468 0.205735,0.330964 0.161009,0.116285 0.500918,0.134175 0.187844,0.0089 0.375689,-0.0089 0.187844,-0.02683 0.384633,-0.05367 l -0.178899,1.923169 q -0.357799,0.107339 -0.724543,0.152064 -0.357798,0.05367 -0.733487,0.05367 -0.858717,-0.01789 -1.413305,-0.375689 -0.545644,-0.357799 -0.787158,-0.983946 -0.232569,-0.635093 -0.152064,-1.466976 z m 8.958364,9.33855 q 0.07156,-0.429359 -0.21468,-0.661928 -0.286239,-0.241514 -0.706652,-0.366744 -0.411469,-0.12523 -0.715598,-0.196789 -0.536698,-0.14312 -1.082341,-0.357799 -0.536699,-0.223624 -0.975002,-0.554588 -0.438304,-0.330964 -0.697708,-0.805048 -0.259404,-0.483028 -0.232569,-1.136011 0.02683,-0.778212 0.393579,-1.350691 0.375688,-0.581423 0.966056,-0.957111 0.590368,-0.384634 1.288076,-0.572478 0.697708,-0.187845 1.386471,-0.169955 0.966056,0.0089 1.788994,0.357799 0.831882,0.348854 1.341745,1.037616 0.518809,0.688763 0.518809,1.717435 l -2.495647,-0.0089 q 0.0089,-0.393579 -0.12523,-0.688763 -0.134174,-0.295184 -0.411468,-0.456193 -0.277295,-0.16101 -0.706653,-0.16101 -0.339909,0 -0.679818,0.134175 -0.330964,0.125229 -0.572478,0.375688 -0.241514,0.25046 -0.304129,0.617203 -0.05367,0.304129 0.08945,0.500919 0.143119,0.196789 0.384633,0.322019 0.241515,0.116284 0.509864,0.196789 0.268349,0.07156 0.483028,0.116285 0.787158,0.205734 1.538535,0.527753 0.751378,0.322019 1.225461,0.903442 0.474084,0.572478 0.438304,1.52959 -0.02684,0.813992 -0.429359,1.395415 -0.402524,0.572478 -1.037617,0.939222 -0.626147,0.357799 -1.359635,0.518809 -0.724543,0.169954 -1.42225,0.161009 Q 55.10517,27.118218 54.246453,26.742529 53.39668,26.366841 52.868927,25.651243 52.341174,24.9267 52.332229,23.880139 l 2.361472,0.0089 q 0.0089,0.465138 0.187845,0.787157 0.178899,0.322019 0.509863,0.491974 0.339909,0.161009 0.805047,0.161009 0.366744,0.0089 0.724543,-0.0984 0.366744,-0.107339 0.635093,-0.348854 0.268349,-0.250459 0.339909,-0.652982 z m 9.745521,-6.950243 -0.322019,1.824774 h -5.483267 l 0.322019,-1.824774 z m -3.712163,-2.388307 h 2.513537 l -1.574315,9.168595 q -0.03578,0.313074 0,0.536698 0.04472,0.21468 0.205735,0.330964 0.161009,0.116285 0.500918,0.134175 0.187844,0.0089 0.375689,-0.0089 0.187844,-0.02683 0.384634,-0.05367 l -0.1789,1.923169 q -0.357799,0.107339 -0.724542,0.152064 -0.357799,0.05367 -0.733488,0.05367 -0.858717,-0.01789 -1.413305,-0.375689 -0.545644,-0.357799 -0.787158,-0.983946 -0.232569,-0.635093 -0.152064,-1.466976 z m 3.546655,7.379601 0.02683,-0.187844 q 0.107339,-1.028672 0.491973,-1.932114 0.393579,-0.912387 1.037617,-1.60115 0.652982,-0.697707 1.52959,-1.082341 0.885552,-0.393579 1.985783,-0.366744 1.046562,0.01789 1.806884,0.420414 0.760323,0.402523 1.243351,1.082341 0.491973,0.679818 0.688763,1.556425 0.205734,0.876607 0.116284,1.851609 l -0.01789,0.196789 q -0.116284,1.019727 -0.518808,1.923169 -0.393579,0.894497 -1.046561,1.58326 -0.644038,0.679817 -1.52959,1.064451 -0.885553,0.384634 -1.967894,0.357799 -1.028672,-0.01789 -1.797939,-0.411469 -0.769268,-0.402523 -1.252296,-1.073396 -0.483028,-0.679818 -0.679818,-1.54748 -0.196789,-0.867662 -0.116284,-1.833719 z m 2.540371,-0.187844 -0.01789,0.196789 q -0.04472,0.429359 -0.02684,0.921332 0.01789,0.483028 0.152065,0.921332 0.143119,0.438304 0.465138,0.724543 0.322019,0.277294 0.885553,0.295184 0.599313,0.01789 1.028671,-0.241515 0.429359,-0.268349 0.706653,-0.706652 0.277294,-0.447249 0.438303,-0.966057 0.16101,-0.527753 0.21468,-1.028672 l 0.01789,-0.187844 q 0.03578,-0.429359 0.01789,-0.921332 -0.0089,-0.500918 -0.152065,-0.939222 -0.143119,-0.447248 -0.465138,-0.733488 -0.322019,-0.295184 -0.885553,-0.313074 -0.599313,-0.01789 -1.028671,0.259405 -0.429359,0.268349 -0.706653,0.715597 -0.277294,0.447249 -0.438303,0.975002 -0.152065,0.527753 -0.205735,1.028672 z m 10.103317,2.245187 3.148629,-7.048637 h 1.65482 l -1.037617,2.933951 -3.086014,6.744508 h -1.395416 z m 0.232569,-7.048637 0.152065,7.299096 -0.295184,2.379363 H 78.688507 L 77.972909,17.27875 Z m 5.125468,6.923408 2.540372,-6.923408 h 2.486702 l -4.052072,9.678459 h -1.610095 z m -0.393579,-6.923408 0.724543,7.254372 -0.169954,2.424087 H 84.341728 L 83.563515,19.989077 V 17.27875 Z"
         id="text1"
         transform="scale(0.97346807,1.0272551)"
         aria-label="Augutstow" /><path
         style="font-style:italic;font-weight:bold;font-size:18.8186px;line-height:1.25;font-family:Roboto;-inkscape-font-specification:'Roboto Bold Italic';letter-spacing:0px;word-spacing:0px;stroke-width:0.252035"
         d="m 117.91441,26.681343 q -0.009,-0.624837 0.41349,-1.029143 0.43188,-0.404305 1.04752,-0.404305 0.58808,-0.0092 1.01077,0.36755 0.43187,0.367551 0.44106,0.97401 0.009,0.624836 -0.42268,1.029142 -0.42269,0.404306 -1.03834,0.404306 -0.58808,0.0092 -1.01995,-0.358362 -0.42268,-0.37674 -0.43187,-0.983198 z m 8.89473,-6.652669 -2.03072,11.706492 h -2.59123 l 2.38908,-13.764777 h 2.38908 z m 5.60515,2.747442 -0.0276,0.192964 q -0.11026,0.900499 -0.42268,1.819376 -0.30323,0.918877 -0.83618,1.681545 -0.53295,0.753479 -1.31399,1.212917 -0.78105,0.45025 -1.83776,0.422684 -0.92806,-0.02757 -1.54371,-0.487005 -0.61565,-0.459438 -0.96482,-1.176162 -0.34918,-0.725913 -0.48701,-1.562091 -0.13783,-0.836178 -0.11026,-1.598846 l 0.0643,-0.514571 q 0.13783,-0.836178 0.47781,-1.7183 0.33999,-0.891311 0.88213,-1.635601 0.54213,-0.753479 1.29561,-1.203729 0.75348,-0.459438 1.73668,-0.431872 1.01995,0.02757 1.66317,0.487005 0.6524,0.459438 0.99238,1.19454 0.33999,0.735101 0.42269,1.608035 0.0919,0.863744 0.009,1.709111 z m -2.60961,0.183775 0.0276,-0.192964 q 0.0368,-0.404306 0.0368,-0.891311 0,-0.496193 -0.11027,-0.946443 -0.11026,-0.45025 -0.4043,-0.753479 -0.29404,-0.30323 -0.84537,-0.321607 -0.56051,-0.02757 -0.9832,0.174587 -0.42268,0.202153 -0.71672,0.569703 -0.28485,0.358362 -0.46863,0.817801 -0.18377,0.459438 -0.26647,0.946443 l -0.18378,1.286428 q -0.0459,0.560515 0.0735,1.111841 0.11945,0.542137 0.46863,0.900499 0.35836,0.358362 1.02914,0.37674 0.60646,0.0092 1.02914,-0.275663 0.42269,-0.284852 0.68916,-0.753479 0.27566,-0.477816 0.42268,-1.019954 0.14702,-0.542137 0.20216,-1.029142 z m 8.49042,-9.161203 -2.4534,14.11395 h -2.58205 l 2.44422,-14.11395 z"
         id="text3"
         aria-label=".pl" /><path
         style="font-style:italic;font-weight:900;font-size:16.1303px;line-height:1.25;font-family:Roboto;-inkscape-font-specification:'Roboto Heavy Italic';letter-spacing:0px;word-spacing:0px;fill:#ffffff;stroke-width:0.252035"
         d="m 102.4804,24.523369 -0.32292,2.047792 h -7.773732 l 0.28354,-1.82726 4.079832,-3.788416 q 0.330798,-0.322921 0.708851,-0.724603 0.378054,-0.401682 0.669469,-0.858497 0.29929,-0.464692 0.37018,-0.945135 0.0473,-0.362302 -0.0157,-0.693099 -0.0551,-0.330797 -0.27567,-0.543453 -0.212652,-0.220531 -0.637963,-0.228407 -0.488319,-0.01575 -0.819117,0.267788 -0.322921,0.28354 -0.504072,0.708851 -0.173274,0.425311 -0.228407,0.842745 l -2.575492,0.01575 q 0.05513,-1.142038 0.66947,-2.016288 0.622214,-0.87425 1.583101,-1.370445 0.968763,-0.496196 2.087173,-0.480444 1.016017,0.01575 1.811507,0.38593 0.80337,0.370178 1.23655,1.094781 0.43319,0.724604 0.34655,1.803632 -0.063,0.748232 -0.3938,1.386198 -0.32293,0.637966 -0.81125,1.197171 -0.48044,0.551329 -1.03177,1.0554 -0.54345,0.496196 -1.047522,0.968764 l -1.740623,1.68549 z m 9.601,-2.433722 -0.35443,2.047792 h -8.01002 l 0.14177,-1.748499 5.65506,-7.285414 h 2.19744 l -2.92992,3.827796 -2.37071,3.142573 z m 0.0866,-6.986121 -1.98478,11.467635 h -2.59124 l 1.98478,-11.467635 z"
         id="text4"
         aria-label="24" /></g></g></svg>
